<svg width="33" height="30" viewBox="0 0 33 30" fill="none" xmlns="http://www.w3.org/2000/svg">
<path d="M32.3308 3.52941C31.1408 4.14706 29.8581 4.55294 28.529 4.74706C29.889 3.81176 30.9399 2.32941 31.4345 0.547059C30.1518 1.42941 28.7299 2.04706 27.2309 2.4C26.0099 0.882353 24.2945 0 22.3472 0C18.7154 0 15.7481 3.38824 15.7481 7.57059C15.7481 8.17059 15.8099 8.75294 15.9181 9.3C10.4164 8.98235 5.51727 5.96471 2.25637 1.39412C1.68455 2.50588 1.36 3.81176 1.36 5.18824C1.36 7.81765 2.51909 10.1471 4.31182 11.4706C3.21455 11.4706 2.19455 11.1176 1.29818 10.5882V10.6412C1.29818 14.3118 3.58546 17.3824 6.61455 18.0706C5.64204 18.3745 4.62105 18.4168 3.63182 18.1941C4.05158 19.6985 4.87365 21.0148 5.98249 21.9581C7.09132 22.9015 8.43115 23.4242 9.81364 23.4529C7.47016 25.5713 4.56527 26.7164 1.57637 26.7C1.05091 26.7 0.525455 26.6647 0 26.5941C2.93637 28.7471 6.42909 30 10.1691 30C22.3472 30 29.039 18.4588 29.039 8.45294C29.039 8.11765 29.039 7.8 29.0236 7.46471C30.3218 6.40588 31.4345 5.06471 32.3308 3.52941Z" fill="white"/>
</svg>
